<svg width="24" height="17" viewBox="0 0 24 17" fill="none" xmlns="http://www.w3.org/2000/svg">
<path d="M2.61538 0C1.92174 0 1.25651 0.275549 0.766028 0.766028C0.275549 1.25651 0 1.92174 0 2.61538L0 14.3846C0 15.0783 0.275549 15.7435 0.766028 16.234C1.25651 16.7245 1.92174 17 2.61538 17H7.84615V0H2.61538Z" fill="#009A49"/>
<path d="M7.84619 0H15.6923V17H7.84619V0Z" fill="#EEEEEE"/>
<path d="M20.9232 0H15.6924V17H20.9232C21.6168 17 22.282 16.7245 22.7725 16.234C23.263 15.7435 23.5385 15.0783 23.5385 14.3846V2.61538C23.5385 1.92174 23.263 1.25651 22.7725 0.766028C22.282 0.275549 21.6168 0 20.9232 0Z" fill="#009A49"/>
</svg>
