<svg width="303" height="57" viewBox="0 0 303 57" fill="none" xmlns="http://www.w3.org/2000/svg">
<path d="M5.472 23V9.368H0.096V6.2H14.736V9.368H9.36V23H5.472ZM28.3479 6.2H32.2359V23H28.3479V6.2ZM20.7159 23H16.8279V6.2H20.7159V23ZM28.6359 16.112H20.4279V12.824H28.6359V16.112ZM36.2108 23V6.2H43.4828C44.9868 6.2 46.2828 6.448 47.3708 6.944C48.4588 7.424 49.2988 8.12 49.8908 9.032C50.4828 9.944 50.7788 11.032 50.7788 12.296C50.7788 13.544 50.4828 14.624 49.8908 15.536C49.2988 16.432 48.4588 17.12 47.3708 17.6C46.2828 18.08 44.9868 18.32 43.4828 18.32H38.3708L40.0988 16.616V23H36.2108ZM46.8907 23L42.6908 16.904H46.8428L51.0908 23H46.8907ZM40.0988 17.048L38.3708 15.224H43.2668C44.4668 15.224 45.3628 14.968 45.9548 14.456C46.5468 13.928 46.8428 13.208 46.8428 12.296C46.8428 11.368 46.5468 10.648 45.9548 10.136C45.3628 9.624 44.4668 9.368 43.2668 9.368H38.3708L40.0988 7.52V17.048ZM53.8592 23V6.2H57.7472V23H53.8592ZM65.3342 13.76H73.3982V16.88H65.3342V13.76ZM65.6222 23H61.7342V6.2H74.4302V9.32H65.6222V23ZM80.6595 23V9.368H75.2835V6.2H89.9235V9.368H84.5475V23H80.6595ZM102.412 13.76H110.476V16.88H102.412V13.76ZM102.7 23H98.8123V6.2H111.508V9.32H102.7V23ZM111.253 23L118.741 6.2H122.581L130.093 23H126.013L119.869 8.168H121.405L115.237 23H111.253ZM114.997 19.4L116.029 16.448H124.669L125.725 19.4H114.997ZM137.356 23.288C136.012 23.288 134.724 23.112 133.492 22.76C132.26 22.392 131.268 21.92 130.516 21.344L131.836 18.416C132.556 18.928 133.404 19.352 134.38 19.688C135.372 20.008 136.372 20.168 137.38 20.168C138.148 20.168 138.764 20.096 139.228 19.952C139.708 19.792 140.06 19.576 140.284 19.304C140.508 19.032 140.62 18.72 140.62 18.368C140.62 17.92 140.444 17.568 140.092 17.312C139.74 17.04 139.276 16.824 138.7 16.664C138.124 16.488 137.484 16.328 136.78 16.184C136.092 16.024 135.396 15.832 134.692 15.608C134.004 15.384 133.372 15.096 132.796 14.744C132.22 14.392 131.748 13.928 131.38 13.352C131.028 12.776 130.852 12.04 130.852 11.144C130.852 10.184 131.108 9.312 131.62 8.528C132.148 7.728 132.932 7.096 133.972 6.632C135.028 6.152 136.348 5.912 137.932 5.912C138.988 5.912 140.028 6.04 141.052 6.296C142.076 6.536 142.98 6.904 143.764 7.4L142.564 10.352C141.78 9.904 140.996 9.576 140.212 9.368C139.428 9.144 138.66 9.032 137.908 9.032C137.156 9.032 136.54 9.12 136.06 9.296C135.58 9.472 135.236 9.704 135.028 9.992C134.82 10.264 134.716 10.584 134.716 10.952C134.716 11.384 134.892 11.736 135.244 12.008C135.596 12.264 136.06 12.472 136.636 12.632C137.212 12.792 137.844 12.952 138.532 13.112C139.236 13.272 139.932 13.456 140.62 13.664C141.324 13.872 141.964 14.152 142.54 14.504C143.116 14.856 143.58 15.32 143.932 15.896C144.3 16.472 144.484 17.2 144.484 18.08C144.484 19.024 144.22 19.888 143.692 20.672C143.164 21.456 142.372 22.088 141.316 22.568C140.276 23.048 138.956 23.288 137.356 23.288ZM158.66 6.2H162.548V23H158.66V6.2ZM151.028 23H147.14V6.2H151.028V23ZM158.948 16.112H150.74V12.824H158.948V16.112ZM166.523 23V6.2H170.411V23H166.523ZM182.558 23.288C181.23 23.288 179.998 23.072 178.862 22.64C177.742 22.208 176.766 21.6 175.934 20.816C175.118 20.032 174.478 19.112 174.014 18.056C173.566 17 173.342 15.848 173.342 14.6C173.342 13.352 173.566 12.2 174.014 11.144C174.478 10.088 175.126 9.168 175.958 8.384C176.79 7.6 177.766 6.992 178.886 6.56C180.006 6.128 181.222 5.912 182.534 5.912C183.862 5.912 185.078 6.128 186.182 6.56C187.302 6.992 188.27 7.6 189.086 8.384C189.918 9.168 190.566 10.088 191.03 11.144C191.494 12.184 191.726 13.336 191.726 14.6C191.726 15.848 191.494 17.008 191.03 18.08C190.566 19.136 189.918 20.056 189.086 20.84C188.27 21.608 187.302 22.208 186.182 22.64C185.078 23.072 183.87 23.288 182.558 23.288ZM182.534 19.976C183.286 19.976 183.974 19.848 184.598 19.592C185.238 19.336 185.798 18.968 186.278 18.488C186.758 18.008 187.126 17.44 187.382 16.784C187.654 16.128 187.79 15.4 187.79 14.6C187.79 13.8 187.654 13.072 187.382 12.416C187.126 11.76 186.758 11.192 186.278 10.712C185.814 10.232 185.262 9.864 184.622 9.608C183.982 9.352 183.286 9.224 182.534 9.224C181.782 9.224 181.086 9.352 180.446 9.608C179.822 9.864 179.27 10.232 178.79 10.712C178.31 11.192 177.934 11.76 177.662 12.416C177.406 13.072 177.278 13.8 177.278 14.6C177.278 15.384 177.406 16.112 177.662 16.784C177.934 17.44 178.302 18.008 178.766 18.488C179.246 18.968 179.806 19.336 180.446 19.592C181.086 19.848 181.782 19.976 182.534 19.976ZM194.648 23V6.2H197.864L207.776 18.296H206.216V6.2H210.056V23H206.864L196.928 10.904H198.488V23H194.648ZM226.348 23.288C225.004 23.288 223.716 23.112 222.484 22.76C221.252 22.392 220.26 21.92 219.508 21.344L220.828 18.416C221.548 18.928 222.396 19.352 223.372 19.688C224.364 20.008 225.364 20.168 226.372 20.168C227.14 20.168 227.756 20.096 228.22 19.952C228.7 19.792 229.052 19.576 229.276 19.304C229.5 19.032 229.612 18.72 229.612 18.368C229.612 17.92 229.436 17.568 229.084 17.312C228.732 17.04 228.268 16.824 227.692 16.664C227.116 16.488 226.476 16.328 225.772 16.184C225.084 16.024 224.388 15.832 223.684 15.608C222.996 15.384 222.364 15.096 221.788 14.744C221.212 14.392 220.74 13.928 220.372 13.352C220.02 12.776 219.844 12.04 219.844 11.144C219.844 10.184 220.1 9.312 220.612 8.528C221.14 7.728 221.924 7.096 222.964 6.632C224.02 6.152 225.34 5.912 226.924 5.912C227.98 5.912 229.02 6.04 230.044 6.296C231.068 6.536 231.972 6.904 232.756 7.4L231.556 10.352C230.772 9.904 229.988 9.576 229.204 9.368C228.42 9.144 227.652 9.032 226.9 9.032C226.148 9.032 225.532 9.12 225.052 9.296C224.572 9.472 224.228 9.704 224.02 9.992C223.812 10.264 223.708 10.584 223.708 10.952C223.708 11.384 223.884 11.736 224.236 12.008C224.588 12.264 225.052 12.472 225.628 12.632C226.204 12.792 226.836 12.952 227.524 13.112C228.228 13.272 228.924 13.456 229.612 13.664C230.316 13.872 230.956 14.152 231.532 14.504C232.108 14.856 232.572 15.32 232.924 15.896C233.292 16.472 233.476 17.2 233.476 18.08C233.476 19.024 233.212 19.888 232.684 20.672C232.156 21.456 231.364 22.088 230.308 22.568C229.268 23.048 227.948 23.288 226.348 23.288ZM239.378 23V9.368H234.002V6.2H248.642V9.368H243.266V23H239.378ZM258.66 23.288C257.332 23.288 256.1 23.072 254.964 22.64C253.844 22.208 252.868 21.6 252.036 20.816C251.22 20.032 250.58 19.112 250.116 18.056C249.668 17 249.444 15.848 249.444 14.6C249.444 13.352 249.668 12.2 250.116 11.144C250.58 10.088 251.228 9.168 252.06 8.384C252.892 7.6 253.868 6.992 254.988 6.56C256.108 6.128 257.324 5.912 258.636 5.912C259.964 5.912 261.18 6.128 262.284 6.56C263.404 6.992 264.372 7.6 265.188 8.384C266.02 9.168 266.668 10.088 267.132 11.144C267.596 12.184 267.828 13.336 267.828 14.6C267.828 15.848 267.596 17.008 267.132 18.08C266.668 19.136 266.02 20.056 265.188 20.84C264.372 21.608 263.404 22.208 262.284 22.64C261.18 23.072 259.972 23.288 258.66 23.288ZM258.636 19.976C259.388 19.976 260.076 19.848 260.7 19.592C261.34 19.336 261.9 18.968 262.38 18.488C262.86 18.008 263.228 17.44 263.484 16.784C263.756 16.128 263.892 15.4 263.892 14.6C263.892 13.8 263.756 13.072 263.484 12.416C263.228 11.76 262.86 11.192 262.38 10.712C261.916 10.232 261.364 9.864 260.724 9.608C260.084 9.352 259.388 9.224 258.636 9.224C257.884 9.224 257.188 9.352 256.548 9.608C255.924 9.864 255.372 10.232 254.892 10.712C254.412 11.192 254.036 11.76 253.764 12.416C253.508 13.072 253.38 13.8 253.38 14.6C253.38 15.384 253.508 16.112 253.764 16.784C254.036 17.44 254.404 18.008 254.868 18.488C255.348 18.968 255.908 19.336 256.548 19.592C257.188 19.848 257.884 19.976 258.636 19.976ZM270.75 23V6.2H278.022C279.526 6.2 280.822 6.448 281.91 6.944C282.998 7.424 283.838 8.12 284.43 9.032C285.022 9.944 285.318 11.032 285.318 12.296C285.318 13.544 285.022 14.624 284.43 15.536C283.838 16.432 282.998 17.12 281.91 17.6C280.822 18.08 279.526 18.32 278.022 18.32H272.91L274.638 16.616V23H270.75ZM281.43 23L277.23 16.904H281.382L285.63 23H281.43ZM274.638 17.048L272.91 15.224H277.806C279.006 15.224 279.902 14.968 280.494 14.456C281.086 13.928 281.382 13.208 281.382 12.296C281.382 11.368 281.086 10.648 280.494 10.136C279.902 9.624 279.006 9.368 277.806 9.368H272.91L274.638 7.52V17.048ZM291.974 12.968H300.062V15.992H291.974V12.968ZM292.262 19.88H301.406V23H288.398V6.2H301.094V9.32H292.262V19.88Z" fill="black"/>
<path d="M45.991 54.078C45.315 54.078 44.665 53.9697 44.041 53.753C43.4257 53.5277 42.949 53.2417 42.611 52.895L42.988 52.154C43.3087 52.466 43.7377 52.7303 44.275 52.947C44.821 53.155 45.393 53.259 45.991 53.259C46.563 53.259 47.0267 53.1897 47.382 53.051C47.746 52.9037 48.0103 52.7087 48.175 52.466C48.3483 52.2233 48.435 51.9547 48.435 51.66C48.435 51.3047 48.331 51.0187 48.123 50.802C47.9237 50.5853 47.6593 50.4163 47.33 50.295C47.0007 50.165 46.6367 50.0523 46.238 49.957C45.8393 49.8617 45.4407 49.762 45.042 49.658C44.6433 49.5453 44.275 49.398 43.937 49.216C43.6077 49.034 43.339 48.7957 43.131 48.501C42.9317 48.1977 42.832 47.8033 42.832 47.318C42.832 46.8673 42.949 46.4557 43.183 46.083C43.4257 45.7017 43.794 45.3983 44.288 45.173C44.782 44.939 45.4147 44.822 46.186 44.822C46.6973 44.822 47.2043 44.8957 47.707 45.043C48.2097 45.1817 48.643 45.3767 49.007 45.628L48.682 46.395C48.292 46.135 47.876 45.9443 47.434 45.823C47.0007 45.7017 46.5803 45.641 46.173 45.641C45.627 45.641 45.1763 45.7147 44.821 45.862C44.4657 46.0093 44.2013 46.2087 44.028 46.46C43.8633 46.7027 43.781 46.98 43.781 47.292C43.781 47.6473 43.8807 47.9333 44.08 48.15C44.288 48.3667 44.5567 48.5357 44.886 48.657C45.224 48.7783 45.5923 48.8867 45.991 48.982C46.3897 49.0773 46.784 49.1813 47.174 49.294C47.5727 49.4067 47.9367 49.554 48.266 49.736C48.604 49.9093 48.8727 50.1433 49.072 50.438C49.28 50.7327 49.384 51.1183 49.384 51.595C49.384 52.037 49.2627 52.4487 49.02 52.83C48.7773 53.2027 48.4047 53.506 47.902 53.74C47.408 53.9653 46.771 54.078 45.991 54.078ZM63.232 54.078C62.5474 54.078 61.9147 53.9653 61.334 53.74C60.7534 53.506 60.2507 53.181 59.826 52.765C59.4014 52.349 59.0677 51.8593 58.825 51.296C58.591 50.7327 58.474 50.1173 58.474 49.45C58.474 48.7827 58.591 48.1673 58.825 47.604C59.0677 47.0407 59.4014 46.551 59.826 46.135C60.2594 45.719 60.7664 45.3983 61.347 45.173C61.9277 44.939 62.5604 44.822 63.245 44.822C63.9037 44.822 64.5234 44.9347 65.104 45.16C65.6847 45.3767 66.1744 45.706 66.573 46.148L65.962 46.759C65.5894 46.3777 65.1777 46.1047 64.727 45.94C64.2764 45.7667 63.791 45.68 63.271 45.68C62.725 45.68 62.218 45.7753 61.75 45.966C61.282 46.148 60.8747 46.4123 60.528 46.759C60.1814 47.097 59.9084 47.4957 59.709 47.955C59.5184 48.4057 59.423 48.904 59.423 49.45C59.423 49.996 59.5184 50.4987 59.709 50.958C59.9084 51.4087 60.1814 51.8073 60.528 52.154C60.8747 52.492 61.282 52.7563 61.75 52.947C62.218 53.129 62.725 53.22 63.271 53.22C63.791 53.22 64.2764 53.1333 64.727 52.96C65.1777 52.7867 65.5894 52.5093 65.962 52.128L66.573 52.739C66.1744 53.181 65.6847 53.5147 65.104 53.74C64.5234 53.9653 63.8994 54.078 63.232 54.078ZM76.4238 54V44.9H79.8298C80.6011 44.9 81.2641 45.0257 81.8188 45.277C82.3735 45.5197 82.7981 45.875 83.0928 46.343C83.3961 46.8023 83.5478 47.3613 83.5478 48.02C83.5478 48.6613 83.3961 49.216 83.0928 49.684C82.7981 50.1433 82.3735 50.4987 81.8188 50.75C81.2641 50.9927 80.6011 51.114 79.8298 51.114H76.9568L77.3858 50.672V54H76.4238ZM82.6378 54L80.2978 50.698H81.3378L83.6908 54H82.6378ZM77.3858 50.75L76.9568 50.295H79.8038C80.7138 50.295 81.4028 50.0957 81.8708 49.697C82.3475 49.2983 82.5858 48.7393 82.5858 48.02C82.5858 47.292 82.3475 46.7287 81.8708 46.33C81.4028 45.9313 80.7138 45.732 79.8038 45.732H76.9568L77.3858 45.277V50.75ZM97.5963 54.078C96.9117 54.078 96.2747 53.9653 95.6853 53.74C95.1047 53.506 94.5977 53.181 94.1643 52.765C93.7397 52.3403 93.406 51.8507 93.1633 51.296C92.9293 50.7327 92.8123 50.1173 92.8123 49.45C92.8123 48.7827 92.9293 48.1717 93.1633 47.617C93.406 47.0537 93.7397 46.564 94.1643 46.148C94.5977 45.7233 95.1047 45.3983 95.6853 45.173C96.266 44.939 96.903 44.822 97.5963 44.822C98.281 44.822 98.9137 44.939 99.4943 45.173C100.075 45.3983 100.578 45.719 101.002 46.135C101.436 46.551 101.769 47.0407 102.003 47.604C102.246 48.1673 102.367 48.7827 102.367 49.45C102.367 50.1173 102.246 50.7327 102.003 51.296C101.769 51.8593 101.436 52.349 101.002 52.765C100.578 53.181 100.075 53.506 99.4943 53.74C98.9137 53.9653 98.281 54.078 97.5963 54.078ZM97.5963 53.22C98.1423 53.22 98.645 53.129 99.1043 52.947C99.5723 52.7563 99.9753 52.492 100.313 52.154C100.66 51.8073 100.929 51.4087 101.119 50.958C101.31 50.4987 101.405 49.996 101.405 49.45C101.405 48.904 101.31 48.4057 101.119 47.955C100.929 47.4957 100.66 47.097 100.313 46.759C99.9753 46.4123 99.5723 46.148 99.1043 45.966C98.645 45.7753 98.1423 45.68 97.5963 45.68C97.0503 45.68 96.5433 45.7753 96.0753 45.966C95.6073 46.148 95.2 46.4123 94.8533 46.759C94.5153 47.097 94.2467 47.4957 94.0473 47.955C93.8567 48.4057 93.7613 48.904 93.7613 49.45C93.7613 49.9873 93.8567 50.4857 94.0473 50.945C94.2467 51.4043 94.5153 51.8073 94.8533 52.154C95.2 52.492 95.6073 52.7563 96.0753 52.947C96.5433 53.129 97.0503 53.22 97.5963 53.22ZM116.302 54.078C115.617 54.078 114.98 53.9653 114.391 53.74C113.81 53.506 113.303 53.181 112.87 52.765C112.445 52.3403 112.111 51.8507 111.869 51.296C111.635 50.7327 111.518 50.1173 111.518 49.45C111.518 48.7827 111.635 48.1717 111.869 47.617C112.111 47.0537 112.445 46.564 112.87 46.148C113.303 45.7233 113.81 45.3983 114.391 45.173C114.971 44.939 115.608 44.822 116.302 44.822C116.986 44.822 117.619 44.939 118.2 45.173C118.78 45.3983 119.283 45.719 119.708 46.135C120.141 46.551 120.475 47.0407 120.709 47.604C120.951 48.1673 121.073 48.7827 121.073 49.45C121.073 50.1173 120.951 50.7327 120.709 51.296C120.475 51.8593 120.141 52.349 119.708 52.765C119.283 53.181 118.78 53.506 118.2 53.74C117.619 53.9653 116.986 54.078 116.302 54.078ZM116.302 53.22C116.848 53.22 117.35 53.129 117.81 52.947C118.278 52.7563 118.681 52.492 119.019 52.154C119.365 51.8073 119.634 51.4087 119.825 50.958C120.015 50.4987 120.111 49.996 120.111 49.45C120.111 48.904 120.015 48.4057 119.825 47.955C119.634 47.4957 119.365 47.097 119.019 46.759C118.681 46.4123 118.278 46.148 117.81 45.966C117.35 45.7753 116.848 45.68 116.302 45.68C115.756 45.68 115.249 45.7753 114.781 45.966C114.313 46.148 113.905 46.4123 113.559 46.759C113.221 47.097 112.952 47.4957 112.753 47.955C112.562 48.4057 112.467 48.904 112.467 49.45C112.467 49.9873 112.562 50.4857 112.753 50.945C112.952 51.4043 113.221 51.8073 113.559 52.154C113.905 52.492 114.313 52.7563 114.781 52.947C115.249 53.129 115.756 53.22 116.302 53.22ZM135.02 54.078C134.327 54.078 133.685 53.9653 133.096 53.74C132.515 53.506 132.008 53.181 131.575 52.765C131.15 52.349 130.817 51.8593 130.574 51.296C130.34 50.7327 130.223 50.1173 130.223 49.45C130.223 48.7827 130.34 48.1673 130.574 47.604C130.817 47.0407 131.155 46.551 131.588 46.135C132.021 45.719 132.528 45.3983 133.109 45.173C133.698 44.939 134.34 44.822 135.033 44.822C135.726 44.822 136.359 44.9303 136.931 45.147C137.512 45.3637 138.006 45.693 138.413 46.135L137.815 46.746C137.434 46.3647 137.013 46.0917 136.554 45.927C136.095 45.7623 135.601 45.68 135.072 45.68C134.509 45.68 133.989 45.7753 133.512 45.966C133.044 46.148 132.632 46.4123 132.277 46.759C131.93 47.097 131.657 47.4957 131.458 47.955C131.267 48.4057 131.172 48.904 131.172 49.45C131.172 49.9873 131.267 50.4857 131.458 50.945C131.657 51.4043 131.93 51.8073 132.277 52.154C132.632 52.492 133.044 52.7563 133.512 52.947C133.989 53.129 134.504 53.22 135.059 53.22C135.579 53.22 136.069 53.142 136.528 52.986C136.996 52.83 137.425 52.5657 137.815 52.193L138.361 52.921C137.928 53.3023 137.421 53.5927 136.84 53.792C136.259 53.9827 135.653 54.078 135.02 54.078ZM137.438 52.804V49.45H138.361V52.921L137.438 52.804ZM149.742 48.969H154.552V49.788H149.742V48.969ZM149.846 53.168H155.319V54H148.884V44.9H155.124V45.732H149.846V53.168ZM178.35 54V45.732H175.152V44.9H182.51V45.732H179.312V54H178.35ZM198.503 44.9H199.452V54H198.503V44.9ZM192.809 54H191.847V44.9H192.809V54ZM198.594 49.801H192.705V48.956H198.594V49.801ZM210.222 54V44.9H213.628C214.4 44.9 215.063 45.0257 215.617 45.277C216.172 45.5197 216.597 45.875 216.891 46.343C217.195 46.8023 217.346 47.3613 217.346 48.02C217.346 48.6613 217.195 49.216 216.891 49.684C216.597 50.1433 216.172 50.4987 215.617 50.75C215.063 50.9927 214.4 51.114 213.628 51.114H210.755L211.184 50.672V54H210.222ZM216.436 54L214.096 50.698H215.136L217.489 54H216.436ZM211.184 50.75L210.755 50.295H213.602C214.512 50.295 215.201 50.0957 215.669 49.697C216.146 49.2983 216.384 48.7393 216.384 48.02C216.384 47.292 216.146 46.7287 215.669 46.33C215.201 45.9313 214.512 45.732 213.602 45.732H210.755L211.184 45.277V50.75ZM227.417 54V44.9H228.379V54H227.417ZM239.998 49.307H244.808V50.139H239.998V49.307ZM240.102 54H239.14V44.9H245.38V45.732H240.102V54ZM256.998 54V45.732H253.8V44.9H261.158V45.732H257.96V54H256.998Z" fill="black"/>
</svg>
