<svg xmlns="http://www.w3.org/2000/svg" width="265" height="57" fill="none" viewBox="0 0 265 57"><path fill="#000" d="M1.992 23V6.2H5.208L12.36 18.056H10.656L17.688 6.2H20.88L20.928 23H17.28L17.256 11.792H17.928L12.312 21.224H10.56L4.824 11.792H5.64V23H1.992ZM22.7059 23L30.1939 6.2H34.0339L41.5459 23H37.4659L31.3219 8.168H32.8579L26.6899 23H22.7059ZM26.4499 19.4L27.4819 16.448H36.1219L37.1779 19.4H26.4499ZM47.4148 23L40.1668 6.2H44.3668L50.7028 21.08H48.2308L54.6628 6.2H58.5268L51.2548 23H47.4148ZM63.5055 12.968H71.5935V15.992H63.5055V12.968ZM63.7935 19.88H72.9375V23H59.9295V6.2H72.6255V9.32H63.7935V19.88ZM76.0311 23V6.2H83.3031C84.8071 6.2 86.1031 6.448 87.1911 6.944C88.2791 7.424 89.1191 8.12 89.7111 9.032C90.3031 9.944 90.5991 11.032 90.5991 12.296C90.5991 13.544 90.3031 14.624 89.7111 15.536C89.1191 16.432 88.2791 17.12 87.1911 17.6C86.1031 18.08 84.8071 18.32 83.3031 18.32H78.1911L79.9191 16.616V23H76.0311ZM86.7111 23L82.5111 16.904H86.6631L90.9111 23H86.7111ZM79.9191 17.048L78.1911 15.224H83.0871C84.2871 15.224 85.1831 14.968 85.7751 14.456C86.3671 13.928 86.6631 13.208 86.6631 12.296C86.6631 11.368 86.3671 10.648 85.7751 10.136C85.1831 9.624 84.2871 9.368 83.0871 9.368H78.1911L79.9191 7.52V17.048ZM93.6795 23V6.2H97.5675V23H93.6795ZM109.595 23.288C108.299 23.288 107.091 23.08 105.971 22.664C104.867 22.232 103.907 21.624 103.09 20.84C102.275 20.056 101.635 19.136 101.171 18.08C100.723 17.024 100.499 15.864 100.499 14.6C100.499 13.336 100.723 12.176 101.171 11.12C101.635 10.064 102.275 9.144 103.09 8.36C103.923 7.576 104.891 6.976 105.995 6.56C107.099 6.128 108.307 5.912 109.619 5.912C111.075 5.912 112.387 6.168 113.555 6.68C114.739 7.176 115.731 7.912 116.531 8.888L114.035 11.192C113.459 10.536 112.819 10.048 112.115 9.728C111.411 9.392 110.643 9.224 109.811 9.224C109.027 9.224 108.307 9.352 107.651 9.608C106.995 9.864 106.427 10.232 105.947 10.712C105.467 11.192 105.091 11.76 104.819 12.416C104.563 13.072 104.435 13.8 104.435 14.6C104.435 15.4 104.563 16.128 104.819 16.784C105.091 17.44 105.467 18.008 105.947 18.488C106.427 18.968 106.995 19.336 107.651 19.592C108.307 19.848 109.027 19.976 109.811 19.976C110.643 19.976 111.411 19.816 112.115 19.496C112.819 19.16 113.459 18.656 114.035 17.984L116.531 20.288C115.731 21.264 114.739 22.008 113.555 22.52C112.387 23.032 111.067 23.288 109.595 23.288ZM122.636 19.16L122.42 14.672L130.46 6.2H134.78L127.532 14L125.372 16.304L122.636 19.16ZM119.156 23V6.2H123.02V23H119.156ZM130.652 23L124.676 15.68L127.22 12.92L135.188 23H130.652ZM150.515 23V6.2H158.147C159.971 6.2 161.579 6.552 162.971 7.256C164.363 7.944 165.451 8.912 166.235 10.16C167.019 11.408 167.411 12.888 167.411 14.6C167.411 16.296 167.019 17.776 166.235 19.04C165.451 20.288 164.363 21.264 162.971 21.968C161.579 22.656 159.971 23 158.147 23H150.515ZM154.403 19.808H157.955C159.075 19.808 160.043 19.6 160.859 19.184C161.691 18.752 162.331 18.144 162.779 17.36C163.243 16.576 163.475 15.656 163.475 14.6C163.475 13.528 163.243 12.608 162.779 11.84C162.331 11.056 161.691 10.456 160.859 10.04C160.043 9.608 159.075 9.392 157.955 9.392H154.403V19.808ZM170.344 23V6.2H177.616C179.12 6.2 180.416 6.448 181.504 6.944C182.592 7.424 183.432 8.12 184.024 9.032C184.616 9.944 184.912 11.032 184.912 12.296C184.912 13.544 184.616 14.624 184.024 15.536C183.432 16.432 182.592 17.12 181.504 17.6C180.416 18.08 179.12 18.32 177.616 18.32H172.504L174.232 16.616V23H170.344ZM181.024 23L176.824 16.904H180.976L185.224 23H181.024ZM174.232 17.048L172.504 15.224H177.4C178.6 15.224 179.496 14.968 180.088 14.456C180.68 13.928 180.976 13.208 180.976 12.296C180.976 11.368 180.68 10.648 180.088 10.136C179.496 9.624 178.6 9.368 177.4 9.368H172.504L174.232 7.52V17.048ZM191.568 12.968H199.656V15.992H191.568V12.968ZM191.856 19.88H201V23H187.992V6.2H200.688V9.32H191.856V19.88ZM209.614 23.288C208.27 23.288 206.982 23.112 205.75 22.76C204.518 22.392 203.526 21.92 202.774 21.344L204.094 18.416C204.814 18.928 205.662 19.352 206.638 19.688C207.63 20.008 208.63 20.168 209.638 20.168C210.406 20.168 211.022 20.096 211.486 19.952C211.966 19.792 212.318 19.576 212.542 19.304C212.766 19.032 212.878 18.72 212.878 18.368C212.878 17.92 212.702 17.568 212.35 17.312C211.998 17.04 211.534 16.824 210.958 16.664C210.382 16.488 209.742 16.328 209.038 16.184C208.35 16.024 207.654 15.832 206.95 15.608C206.262 15.384 205.63 15.096 205.054 14.744C204.478 14.392 204.006 13.928 203.638 13.352C203.286 12.776 203.11 12.04 203.11 11.144C203.11 10.184 203.366 9.312 203.878 8.528C204.406 7.728 205.19 7.096 206.23 6.632C207.286 6.152 208.606 5.912 210.19 5.912C211.246 5.912 212.286 6.04 213.31 6.296C214.334 6.536 215.238 6.904 216.022 7.4L214.822 10.352C214.038 9.904 213.254 9.576 212.47 9.368C211.686 9.144 210.918 9.032 210.166 9.032C209.414 9.032 208.798 9.12 208.318 9.296C207.838 9.472 207.494 9.704 207.286 9.992C207.078 10.264 206.974 10.584 206.974 10.952C206.974 11.384 207.15 11.736 207.502 12.008C207.854 12.264 208.318 12.472 208.894 12.632C209.47 12.792 210.102 12.952 210.79 13.112C211.494 13.272 212.19 13.456 212.878 13.664C213.582 13.872 214.222 14.152 214.798 14.504C215.374 14.856 215.838 15.32 216.19 15.896C216.558 16.472 216.742 17.2 216.742 18.08C216.742 19.024 216.478 19.888 215.95 20.672C215.422 21.456 214.63 22.088 213.574 22.568C212.534 23.048 211.214 23.288 209.614 23.288ZM224.918 23.288C223.574 23.288 222.286 23.112 221.054 22.76C219.822 22.392 218.83 21.92 218.078 21.344L219.398 18.416C220.118 18.928 220.966 19.352 221.942 19.688C222.934 20.008 223.934 20.168 224.942 20.168C225.71 20.168 226.326 20.096 226.79 19.952C227.27 19.792 227.622 19.576 227.846 19.304C228.07 19.032 228.182 18.72 228.182 18.368C228.182 17.92 228.006 17.568 227.654 17.312C227.302 17.04 226.838 16.824 226.262 16.664C225.686 16.488 225.046 16.328 224.342 16.184C223.654 16.024 222.958 15.832 222.254 15.608C221.566 15.384 220.934 15.096 220.358 14.744C219.782 14.392 219.31 13.928 218.942 13.352C218.59 12.776 218.414 12.04 218.414 11.144C218.414 10.184 218.67 9.312 219.182 8.528C219.71 7.728 220.494 7.096 221.534 6.632C222.59 6.152 223.91 5.912 225.494 5.912C226.55 5.912 227.59 6.04 228.614 6.296C229.638 6.536 230.542 6.904 231.326 7.4L230.126 10.352C229.342 9.904 228.558 9.576 227.774 9.368C226.99 9.144 226.222 9.032 225.47 9.032C224.718 9.032 224.102 9.12 223.622 9.296C223.142 9.472 222.798 9.704 222.59 9.992C222.382 10.264 222.278 10.584 222.278 10.952C222.278 11.384 222.454 11.736 222.806 12.008C223.158 12.264 223.622 12.472 224.198 12.632C224.774 12.792 225.406 12.952 226.094 13.112C226.798 13.272 227.494 13.456 228.182 13.664C228.886 13.872 229.526 14.152 230.102 14.504C230.678 14.856 231.142 15.32 231.494 15.896C231.862 16.472 232.046 17.2 232.046 18.08C232.046 19.024 231.782 19.888 231.254 20.672C230.726 21.456 229.934 22.088 228.878 22.568C227.838 23.048 226.518 23.288 224.918 23.288ZM238.279 12.968H246.367V15.992H238.279V12.968ZM238.567 19.88H247.711V23H234.703V6.2H247.399V9.32H238.567V19.88ZM256.325 23.288C254.981 23.288 253.693 23.112 252.461 22.76C251.229 22.392 250.237 21.92 249.485 21.344L250.805 18.416C251.525 18.928 252.373 19.352 253.349 19.688C254.341 20.008 255.341 20.168 256.349 20.168C257.117 20.168 257.733 20.096 258.197 19.952C258.677 19.792 259.029 19.576 259.253 19.304C259.477 19.032 259.589 18.72 259.589 18.368C259.589 17.92 259.413 17.568 259.061 17.312C258.709 17.04 258.245 16.824 257.669 16.664C257.093 16.488 256.453 16.328 255.749 16.184C255.061 16.024 254.365 15.832 253.661 15.608C252.973 15.384 252.341 15.096 251.765 14.744C251.189 14.392 250.717 13.928 250.349 13.352C249.997 12.776 249.821 12.04 249.821 11.144C249.821 10.184 250.077 9.312 250.589 8.528C251.117 7.728 251.901 7.096 252.941 6.632C253.997 6.152 255.317 5.912 256.901 5.912C257.957 5.912 258.997 6.04 260.021 6.296C261.045 6.536 261.949 6.904 262.733 7.4L261.533 10.352C260.749 9.904 259.965 9.576 259.181 9.368C258.397 9.144 257.629 9.032 256.877 9.032C256.125 9.032 255.509 9.12 255.029 9.296C254.549 9.472 254.205 9.704 253.997 9.992C253.789 10.264 253.685 10.584 253.685 10.952C253.685 11.384 253.861 11.736 254.213 12.008C254.565 12.264 255.029 12.472 255.605 12.632C256.181 12.792 256.813 12.952 257.501 13.112C258.205 13.272 258.901 13.456 259.589 13.664C260.293 13.872 260.933 14.152 261.509 14.504C262.085 14.856 262.549 15.32 262.901 15.896C263.269 16.472 263.453 17.2 263.453 18.08C263.453 19.024 263.189 19.888 262.661 20.672C262.133 21.456 261.341 22.088 260.285 22.568C259.245 23.048 257.925 23.288 256.325 23.288Z"/><path fill="#000" d="M29.482 54V44.9H32.888C33.6593 44.9 34.3223 45.0257 34.877 45.277C35.4317 45.5197 35.8563 45.875 36.151 46.343C36.4543 46.8023 36.606 47.3613 36.606 48.02C36.606 48.6613 36.4543 49.216 36.151 49.684C35.8563 50.1433 35.4317 50.4987 34.877 50.75C34.3223 51.0013 33.6593 51.127 32.888 51.127H30.015L30.444 50.672V54H29.482ZM30.444 50.75L30.015 50.282H32.862C33.772 50.282 34.461 50.087 34.929 49.697C35.4057 49.2983 35.644 48.7393 35.644 48.02C35.644 47.292 35.4057 46.7287 34.929 46.33C34.461 45.9313 33.772 45.732 32.862 45.732H30.015L30.444 45.277V50.75ZM47.3441 48.969H52.1541V49.788H47.3441V48.969ZM47.4481 53.168H52.9211V54H46.4861V44.9H52.7261V45.732H47.4481V53.168ZM66.935 54.078C66.2503 54.078 65.6133 53.9653 65.024 53.74C64.4433 53.506 63.9363 53.181 63.503 52.765C63.0783 52.3403 62.7447 51.8507 62.502 51.296C62.268 50.7327 62.151 50.1173 62.151 49.45C62.151 48.7827 62.268 48.1717 62.502 47.617C62.7447 47.0537 63.0783 46.564 63.503 46.148C63.9363 45.7233 64.4433 45.3983 65.024 45.173C65.6047 44.939 66.2417 44.822 66.935 44.822C67.6197 44.822 68.2523 44.939 68.833 45.173C69.4137 45.3983 69.9163 45.719 70.341 46.135C70.7743 46.551 71.108 47.0407 71.342 47.604C71.5847 48.1673 71.706 48.7827 71.706 49.45C71.706 50.1173 71.5847 50.7327 71.342 51.296C71.108 51.8593 70.7743 52.349 70.341 52.765C69.9163 53.181 69.4137 53.506 68.833 53.74C68.2523 53.9653 67.6197 54.078 66.935 54.078ZM66.935 53.22C67.481 53.22 67.9837 53.129 68.443 52.947C68.911 52.7563 69.314 52.492 69.652 52.154C69.9987 51.8073 70.2673 51.4087 70.458 50.958C70.6487 50.4987 70.744 49.996 70.744 49.45C70.744 48.904 70.6487 48.4057 70.458 47.955C70.2673 47.4957 69.9987 47.097 69.652 46.759C69.314 46.4123 68.911 46.148 68.443 45.966C67.9837 45.7753 67.481 45.68 66.935 45.68C66.389 45.68 65.882 45.7753 65.414 45.966C64.946 46.148 64.5387 46.4123 64.192 46.759C63.854 47.097 63.5853 47.4957 63.386 47.955C63.1953 48.4057 63.1 48.904 63.1 49.45C63.1 49.9873 63.1953 50.4857 63.386 50.945C63.5853 51.4043 63.854 51.8073 64.192 52.154C64.5387 52.492 64.946 52.7563 65.414 52.947C65.882 53.129 66.389 53.22 66.935 53.22ZM81.6623 54V44.9H85.0683C85.8396 44.9 86.5026 45.0257 87.0573 45.277C87.6119 45.5197 88.0366 45.875 88.3313 46.343C88.6346 46.8023 88.7863 47.3613 88.7863 48.02C88.7863 48.6613 88.6346 49.216 88.3313 49.684C88.0366 50.1433 87.6119 50.4987 87.0573 50.75C86.5026 51.0013 85.8396 51.127 85.0683 51.127H82.1953L82.6243 50.672V54H81.6623ZM82.6243 50.75L82.1953 50.282H85.0423C85.9523 50.282 86.6413 50.087 87.1093 49.697C87.5859 49.2983 87.8243 48.7393 87.8243 48.02C87.8243 47.292 87.5859 46.7287 87.1093 46.33C86.6413 45.9313 85.9523 45.732 85.0423 45.732H82.1953L82.6243 45.277V50.75ZM98.6664 54V44.9H99.6284V53.168H104.724V54H98.6664ZM114.98 48.969H119.79V49.788H114.98V48.969ZM115.084 53.168H120.557V54H114.122V44.9H120.362V45.732H115.084V53.168ZM133.127 54.078C132.451 54.078 131.801 53.9697 131.177 53.753C130.562 53.5277 130.085 53.2417 129.747 52.895L130.124 52.154C130.445 52.466 130.874 52.7303 131.411 52.947C131.957 53.155 132.529 53.259 133.127 53.259C133.699 53.259 134.163 53.1897 134.518 53.051C134.882 52.9037 135.146 52.7087 135.311 52.466C135.484 52.2233 135.571 51.9547 135.571 51.66C135.571 51.3047 135.467 51.0187 135.259 50.802C135.06 50.5853 134.795 50.4163 134.466 50.295C134.137 50.165 133.773 50.0523 133.374 49.957C132.975 49.8617 132.577 49.762 132.178 49.658C131.779 49.5453 131.411 49.398 131.073 49.216C130.744 49.034 130.475 48.7957 130.267 48.501C130.068 48.1977 129.968 47.8033 129.968 47.318C129.968 46.8673 130.085 46.4557 130.319 46.083C130.562 45.7017 130.93 45.3983 131.424 45.173C131.918 44.939 132.551 44.822 133.322 44.822C133.833 44.822 134.34 44.8957 134.843 45.043C135.346 45.1817 135.779 45.3767 136.143 45.628L135.818 46.395C135.428 46.135 135.012 45.9443 134.57 45.823C134.137 45.7017 133.716 45.641 133.309 45.641C132.763 45.641 132.312 45.7147 131.957 45.862C131.602 46.0093 131.337 46.2087 131.164 46.46C130.999 46.7027 130.917 46.98 130.917 47.292C130.917 47.6473 131.017 47.9333 131.216 48.15C131.424 48.3667 131.693 48.5357 132.022 48.657C132.36 48.7783 132.728 48.8867 133.127 48.982C133.526 49.0773 133.92 49.1813 134.31 49.294C134.709 49.4067 135.073 49.554 135.402 49.736C135.74 49.9093 136.009 50.1433 136.208 50.438C136.416 50.7327 136.52 51.1183 136.52 51.595C136.52 52.037 136.399 52.4487 136.156 52.83C135.913 53.2027 135.541 53.506 135.038 53.74C134.544 53.9653 133.907 54.078 133.127 54.078ZM161.57 54.078C160.886 54.078 160.253 53.9653 159.672 53.74C159.092 53.506 158.589 53.181 158.164 52.765C157.74 52.349 157.406 51.8593 157.163 51.296C156.929 50.7327 156.812 50.1173 156.812 49.45C156.812 48.7827 156.929 48.1673 157.163 47.604C157.406 47.0407 157.74 46.551 158.164 46.135C158.598 45.719 159.105 45.3983 159.685 45.173C160.266 44.939 160.899 44.822 161.583 44.822C162.242 44.822 162.862 44.9347 163.442 45.16C164.023 45.3767 164.513 45.706 164.911 46.148L164.3 46.759C163.928 46.3777 163.516 46.1047 163.065 45.94C162.615 45.7667 162.129 45.68 161.609 45.68C161.063 45.68 160.556 45.7753 160.088 45.966C159.62 46.148 159.213 46.4123 158.866 46.759C158.52 47.097 158.247 47.4957 158.047 47.955C157.857 48.4057 157.761 48.904 157.761 49.45C157.761 49.996 157.857 50.4987 158.047 50.958C158.247 51.4087 158.52 51.8073 158.866 52.154C159.213 52.492 159.62 52.7563 160.088 52.947C160.556 53.129 161.063 53.22 161.609 53.22C162.129 53.22 162.615 53.1333 163.065 52.96C163.516 52.7867 163.928 52.5093 164.3 52.128L164.911 52.739C164.513 53.181 164.023 53.5147 163.442 53.74C162.862 53.9653 162.238 54.078 161.57 54.078ZM181.418 44.9H182.367V54H181.418V44.9ZM175.724 54H174.762V44.9H175.724V54ZM181.509 49.801H175.62V48.956H181.509V49.801ZM197.115 54.078C196.431 54.078 195.794 53.9653 195.204 53.74C194.624 53.506 194.117 53.181 193.683 52.765C193.259 52.3403 192.925 51.8507 192.682 51.296C192.448 50.7327 192.331 50.1173 192.331 49.45C192.331 48.7827 192.448 48.1717 192.682 47.617C192.925 47.0537 193.259 46.564 193.683 46.148C194.117 45.7233 194.624 45.3983 195.204 45.173C195.785 44.939 196.422 44.822 197.115 44.822C197.8 44.822 198.433 44.939 199.013 45.173C199.594 45.3983 200.097 45.719 200.521 46.135C200.955 46.551 201.288 47.0407 201.522 47.604C201.765 48.1673 201.886 48.7827 201.886 49.45C201.886 50.1173 201.765 50.7327 201.522 51.296C201.288 51.8593 200.955 52.349 200.521 52.765C200.097 53.181 199.594 53.506 199.013 53.74C198.433 53.9653 197.8 54.078 197.115 54.078ZM197.115 53.22C197.661 53.22 198.164 53.129 198.623 52.947C199.091 52.7563 199.494 52.492 199.832 52.154C200.179 51.8073 200.448 51.4087 200.638 50.958C200.829 50.4987 200.924 49.996 200.924 49.45C200.924 48.904 200.829 48.4057 200.638 47.955C200.448 47.4957 200.179 47.097 199.832 46.759C199.494 46.4123 199.091 46.148 198.623 45.966C198.164 45.7753 197.661 45.68 197.115 45.68C196.569 45.68 196.062 45.7753 195.594 45.966C195.126 46.148 194.719 46.4123 194.372 46.759C194.034 47.097 193.766 47.4957 193.566 47.955C193.376 48.4057 193.28 48.904 193.28 49.45C193.28 49.9873 193.376 50.4857 193.566 50.945C193.766 51.4043 194.034 51.8073 194.372 52.154C194.719 52.492 195.126 52.7563 195.594 52.947C196.062 53.129 196.569 53.22 197.115 53.22ZM211.843 54V44.9H212.805V54H211.843ZM227.517 54.078C226.833 54.078 226.2 53.9653 225.619 53.74C225.039 53.506 224.536 53.181 224.111 52.765C223.687 52.349 223.353 51.8593 223.11 51.296C222.876 50.7327 222.759 50.1173 222.759 49.45C222.759 48.7827 222.876 48.1673 223.11 47.604C223.353 47.0407 223.687 46.551 224.111 46.135C224.545 45.719 225.052 45.3983 225.632 45.173C226.213 44.939 226.846 44.822 227.53 44.822C228.189 44.822 228.809 44.9347 229.389 45.16C229.97 45.3767 230.46 45.706 230.858 46.148L230.247 46.759C229.875 46.3777 229.463 46.1047 229.012 45.94C228.562 45.7667 228.076 45.68 227.556 45.68C227.01 45.68 226.503 45.7753 226.035 45.966C225.567 46.148 225.16 46.4123 224.813 46.759C224.467 47.097 224.194 47.4957 223.994 47.955C223.804 48.4057 223.708 48.904 223.708 49.45C223.708 49.996 223.804 50.4987 223.994 50.958C224.194 51.4087 224.467 51.8073 224.813 52.154C225.16 52.492 225.567 52.7563 226.035 52.947C226.503 53.129 227.01 53.22 227.556 53.22C228.076 53.22 228.562 53.1333 229.012 52.96C229.463 52.7867 229.875 52.5093 230.247 52.128L230.858 52.739C230.46 53.181 229.97 53.5147 229.389 53.74C228.809 53.9653 228.185 54.078 227.517 54.078ZM241.567 48.969H246.377V49.788H241.567V48.969ZM241.671 53.168H247.144V54H240.709V44.9H246.949V45.732H241.671V53.168Z"/></svg>